<svg preserveAspectRatio="none" overflow="visible" style="display: block;" width="13.3748" height="20.2927" viewBox="0 0 13.3748 20.2927" fill="none" xmlns="http://www.w3.org/2000/svg">
<g id="Group">
<path id="Vector" d="M3.22839 11.2994C2.26041 10.5734 1.5454 9.56124 1.18463 8.40631C0.823852 7.25137 0.835611 6.01221 1.21824 4.86433C1.60086 3.71645 2.33496 2.71806 3.31653 2.01058C4.29811 1.3031 5.47741 0.922397 6.68738 0.922397C7.89734 0.922397 9.07664 1.3031 10.0582 2.01058C11.0398 2.71806 11.7739 3.71645 12.1565 4.86433C12.5391 6.01221 12.5509 7.25137 12.1901 8.40631C11.8294 9.56124 11.1143 10.5734 10.1464 11.2994C9.10867 12.1065 8.76277 12.9136 8.76277 13.9512H4.61198C4.61198 12.9136 4.26608 12.1065 3.22839 11.2994Z" stroke="#6D4C39" stroke-width="1.84479" stroke-linecap="round" stroke-linejoin="round"/>
<path id="Vector_2" d="M4.38138 17.0643H8.99337M4.95788 19.3703H8.41687" stroke="#6D4C39" stroke-width="1.84479" stroke-linecap="round" stroke-linejoin="round"/>
</g>
</svg>
